<mxfile host="app.diagrams.net" agent="Mozilla/5.0 (Windows NT 10.0; Win64; x64) AppleWebKit/537.36 (KHTML, like Gecko) Chrome/130.0.0.0 Safari/537.36" version="25.0.3">
  <diagram name="Page-1" id="ocd1gPoUwxCQQ0R6h-Pc">
    <mxGraphModel dx="2570" dy="1796" grid="1" gridSize="10" guides="1" tooltips="1" connect="1" arrows="1" fold="1" page="1" pageScale="1" pageWidth="850" pageHeight="1100" math="0" shadow="0">
      <root>
        <mxCell id="0" />
        <mxCell id="1" parent="0" />
        <mxCell id="YjS9ViXObc5qZ1YVy72e-1" value="" style="ellipse;html=1;shape=endState;fillColor=#000000;strokeColor=#ff0000;" parent="1" vertex="1">
          <mxGeometry x="690" y="1215" width="30" height="30" as="geometry" />
        </mxCell>
        <mxCell id="YjS9ViXObc5qZ1YVy72e-14" style="edgeStyle=orthogonalEdgeStyle;rounded=0;orthogonalLoop=1;jettySize=auto;html=1;entryX=0.5;entryY=0;entryDx=0;entryDy=0;" parent="1" source="YjS9ViXObc5qZ1YVy72e-3" target="YjS9ViXObc5qZ1YVy72e-6" edge="1">
          <mxGeometry relative="1" as="geometry" />
        </mxCell>
        <mxCell id="YjS9ViXObc5qZ1YVy72e-3" value="" style="ellipse;html=1;shape=startState;fillColor=#000000;strokeColor=#ff0000;" parent="1" vertex="1">
          <mxGeometry x="45" y="20" width="30" height="30" as="geometry" />
        </mxCell>
        <mxCell id="YjS9ViXObc5qZ1YVy72e-5" value="Start crafting" style="text;html=1;align=center;verticalAlign=middle;resizable=0;points=[];autosize=1;strokeColor=none;fillColor=none;" parent="1" vertex="1">
          <mxGeometry x="12.5" width="90" height="30" as="geometry" />
        </mxCell>
        <mxCell id="YjS9ViXObc5qZ1YVy72e-12" style="edgeStyle=orthogonalEdgeStyle;rounded=0;orthogonalLoop=1;jettySize=auto;html=1;entryX=0.5;entryY=0;entryDx=0;entryDy=0;" parent="1" source="YjS9ViXObc5qZ1YVy72e-6" target="YjS9ViXObc5qZ1YVy72e-11" edge="1">
          <mxGeometry relative="1" as="geometry" />
        </mxCell>
        <mxCell id="YjS9ViXObc5qZ1YVy72e-6" value="Player right clicks crafting table" style="rounded=1;whiteSpace=wrap;html=1;fillColor=#FFFF99;" parent="1" vertex="1">
          <mxGeometry x="10" y="80" width="100" height="40" as="geometry" />
        </mxCell>
        <mxCell id="YjS9ViXObc5qZ1YVy72e-16" style="edgeStyle=orthogonalEdgeStyle;rounded=0;orthogonalLoop=1;jettySize=auto;html=1;entryX=0.5;entryY=0;entryDx=0;entryDy=0;" parent="1" source="YjS9ViXObc5qZ1YVy72e-11" target="YjS9ViXObc5qZ1YVy72e-15" edge="1">
          <mxGeometry relative="1" as="geometry" />
        </mxCell>
        <mxCell id="YjS9ViXObc5qZ1YVy72e-11" value="System displays crafting table GUI" style="rounded=1;whiteSpace=wrap;html=1;fillColor=#FFFF99;" parent="1" vertex="1">
          <mxGeometry x="10" y="160" width="100" height="40" as="geometry" />
        </mxCell>
        <mxCell id="YjS9ViXObc5qZ1YVy72e-20" style="edgeStyle=orthogonalEdgeStyle;rounded=0;orthogonalLoop=1;jettySize=auto;html=1;entryX=0.5;entryY=0;entryDx=0;entryDy=0;" parent="1" source="YjS9ViXObc5qZ1YVy72e-15" target="YjS9ViXObc5qZ1YVy72e-18" edge="1">
          <mxGeometry relative="1" as="geometry" />
        </mxCell>
        <mxCell id="YjS9ViXObc5qZ1YVy72e-24" style="edgeStyle=orthogonalEdgeStyle;rounded=0;orthogonalLoop=1;jettySize=auto;html=1;entryX=0;entryY=0.5;entryDx=0;entryDy=0;" parent="1" source="YjS9ViXObc5qZ1YVy72e-15" target="YjS9ViXObc5qZ1YVy72e-23" edge="1">
          <mxGeometry relative="1" as="geometry" />
        </mxCell>
        <mxCell id="YjS9ViXObc5qZ1YVy72e-15" value="" style="rhombus;whiteSpace=wrap;html=1;" parent="1" vertex="1">
          <mxGeometry x="27.5" y="220" width="65" height="60" as="geometry" />
        </mxCell>
        <mxCell id="YjS9ViXObc5qZ1YVy72e-17" value="&lt;font style=&quot;font-size: 9px;&quot;&gt;Does the player has&lt;/font&gt;&amp;nbsp;&lt;div&gt;&lt;font style=&quot;font-size: 9px;&quot;&gt;2 tool roots?&lt;/font&gt;&lt;/div&gt;" style="text;html=1;align=center;verticalAlign=middle;resizable=0;points=[];autosize=1;strokeColor=none;fillColor=none;" parent="1" vertex="1">
          <mxGeometry x="60" y="200" width="110" height="40" as="geometry" />
        </mxCell>
        <mxCell id="YjS9ViXObc5qZ1YVy72e-50" style="edgeStyle=orthogonalEdgeStyle;rounded=0;orthogonalLoop=1;jettySize=auto;html=1;entryX=0;entryY=0.5;entryDx=0;entryDy=0;" parent="1" source="YjS9ViXObc5qZ1YVy72e-18" target="YjS9ViXObc5qZ1YVy72e-49" edge="1">
          <mxGeometry relative="1" as="geometry" />
        </mxCell>
        <mxCell id="YjS9ViXObc5qZ1YVy72e-71" style="edgeStyle=orthogonalEdgeStyle;rounded=0;orthogonalLoop=1;jettySize=auto;html=1;entryX=0.5;entryY=0;entryDx=0;entryDy=0;" parent="1" source="YjS9ViXObc5qZ1YVy72e-18" target="YjS9ViXObc5qZ1YVy72e-70" edge="1">
          <mxGeometry relative="1" as="geometry" />
        </mxCell>
        <mxCell id="YjS9ViXObc5qZ1YVy72e-18" value="" style="rhombus;whiteSpace=wrap;html=1;" parent="1" vertex="1">
          <mxGeometry x="30" y="300" width="60" height="60" as="geometry" />
        </mxCell>
        <mxCell id="YjS9ViXObc5qZ1YVy72e-21" value="Y" style="text;html=1;align=center;verticalAlign=middle;resizable=0;points=[];autosize=1;strokeColor=none;fillColor=none;" parent="1" vertex="1">
          <mxGeometry x="27.5" y="272.5" width="30" height="30" as="geometry" />
        </mxCell>
        <mxCell id="YjS9ViXObc5qZ1YVy72e-22" value="&lt;font style=&quot;font-size: 9px;&quot;&gt;Does the player has&lt;/font&gt;&lt;div&gt;&lt;font style=&quot;font-size: 9px;&quot;&gt;3 tool plates?&lt;/font&gt;&lt;/div&gt;" style="text;html=1;align=center;verticalAlign=middle;resizable=0;points=[];autosize=1;strokeColor=none;fillColor=none;" parent="1" vertex="1">
          <mxGeometry x="60" y="276.25" width="100" height="40" as="geometry" />
        </mxCell>
        <mxCell id="YjS9ViXObc5qZ1YVy72e-28" style="edgeStyle=orthogonalEdgeStyle;rounded=0;orthogonalLoop=1;jettySize=auto;html=1;entryX=0;entryY=0.5;entryDx=0;entryDy=0;" parent="1" source="YjS9ViXObc5qZ1YVy72e-23" target="YjS9ViXObc5qZ1YVy72e-27" edge="1">
          <mxGeometry relative="1" as="geometry" />
        </mxCell>
        <mxCell id="YjS9ViXObc5qZ1YVy72e-44" style="edgeStyle=orthogonalEdgeStyle;rounded=0;orthogonalLoop=1;jettySize=auto;html=1;entryX=0.5;entryY=1;entryDx=0;entryDy=0;" parent="1" source="YjS9ViXObc5qZ1YVy72e-23" target="YjS9ViXObc5qZ1YVy72e-43" edge="1">
          <mxGeometry relative="1" as="geometry" />
        </mxCell>
        <mxCell id="YjS9ViXObc5qZ1YVy72e-23" value="" style="rhombus;whiteSpace=wrap;html=1;" parent="1" vertex="1">
          <mxGeometry x="150" y="220" width="60" height="60" as="geometry" />
        </mxCell>
        <mxCell id="YjS9ViXObc5qZ1YVy72e-25" value="N" style="text;html=1;align=center;verticalAlign=middle;resizable=0;points=[];autosize=1;strokeColor=none;fillColor=none;" parent="1" vertex="1">
          <mxGeometry x="90" y="250" width="30" height="30" as="geometry" />
        </mxCell>
        <mxCell id="YjS9ViXObc5qZ1YVy72e-26" value="&lt;font style=&quot;font-size: 9px;&quot;&gt;Does the player has&lt;/font&gt;&lt;font style=&quot;font-size: 12px;&quot;&gt;&amp;nbsp;&lt;/font&gt;&lt;div&gt;&lt;font style=&quot;font-size: 9px;&quot;&gt;rolling mill machine?&lt;/font&gt;&lt;/div&gt;" style="text;html=1;align=center;verticalAlign=middle;resizable=0;points=[];autosize=1;strokeColor=none;fillColor=none;" parent="1" vertex="1">
          <mxGeometry x="175" y="192.5" width="110" height="40" as="geometry" />
        </mxCell>
        <mxCell id="YjS9ViXObc5qZ1YVy72e-31" style="edgeStyle=orthogonalEdgeStyle;rounded=0;orthogonalLoop=1;jettySize=auto;html=1;" parent="1" source="YjS9ViXObc5qZ1YVy72e-27" target="YjS9ViXObc5qZ1YVy72e-30" edge="1">
          <mxGeometry relative="1" as="geometry" />
        </mxCell>
        <mxCell id="YjS9ViXObc5qZ1YVy72e-27" value="Player access rolling mill machine" style="rounded=1;whiteSpace=wrap;html=1;fillColor=#99CCFF;" parent="1" vertex="1">
          <mxGeometry x="250" y="227.5" width="90" height="45" as="geometry" />
        </mxCell>
        <mxCell id="YjS9ViXObc5qZ1YVy72e-29" value="Y" style="text;html=1;align=center;verticalAlign=middle;resizable=0;points=[];autosize=1;strokeColor=none;fillColor=none;" parent="1" vertex="1">
          <mxGeometry x="200" y="246.25" width="30" height="30" as="geometry" />
        </mxCell>
        <mxCell id="YjS9ViXObc5qZ1YVy72e-34" style="edgeStyle=orthogonalEdgeStyle;rounded=0;orthogonalLoop=1;jettySize=auto;html=1;entryX=0;entryY=0.5;entryDx=0;entryDy=0;" parent="1" source="YjS9ViXObc5qZ1YVy72e-30" target="YjS9ViXObc5qZ1YVy72e-33" edge="1">
          <mxGeometry relative="1" as="geometry" />
        </mxCell>
        <mxCell id="YjS9ViXObc5qZ1YVy72e-30" value="System displays the rolling mill machine GUI" style="rounded=1;whiteSpace=wrap;html=1;fillColor=#99CCFF;" parent="1" vertex="1">
          <mxGeometry x="370" y="227.5" width="95" height="45" as="geometry" />
        </mxCell>
        <mxCell id="YjS9ViXObc5qZ1YVy72e-37" style="edgeStyle=orthogonalEdgeStyle;rounded=0;orthogonalLoop=1;jettySize=auto;html=1;entryX=0;entryY=0.5;entryDx=0;entryDy=0;" parent="1" source="YjS9ViXObc5qZ1YVy72e-33" target="YjS9ViXObc5qZ1YVy72e-36" edge="1">
          <mxGeometry relative="1" as="geometry" />
        </mxCell>
        <mxCell id="YjS9ViXObc5qZ1YVy72e-33" value="" style="rhombus;whiteSpace=wrap;html=1;" parent="1" vertex="1">
          <mxGeometry x="500" y="220" width="60" height="60" as="geometry" />
        </mxCell>
        <mxCell id="YjS9ViXObc5qZ1YVy72e-35" value="&lt;font style=&quot;font-size: 9px;&quot;&gt;Does the&amp;nbsp;&lt;/font&gt;&lt;div&gt;&lt;font style=&quot;font-size: 9px;&quot;&gt;rolling mill machine&amp;nbsp;&lt;/font&gt;&lt;/div&gt;&lt;div&gt;&lt;font style=&quot;font-size: 9px;&quot;&gt;has energy?&amp;nbsp;&lt;/font&gt;&lt;/div&gt;" style="text;html=1;align=center;verticalAlign=middle;resizable=0;points=[];autosize=1;strokeColor=none;fillColor=none;" parent="1" vertex="1">
          <mxGeometry x="440" y="180" width="100" height="60" as="geometry" />
        </mxCell>
        <mxCell id="YjS9ViXObc5qZ1YVy72e-40" value="" style="edgeStyle=orthogonalEdgeStyle;rounded=0;orthogonalLoop=1;jettySize=auto;html=1;" parent="1" source="YjS9ViXObc5qZ1YVy72e-36" target="YjS9ViXObc5qZ1YVy72e-39" edge="1">
          <mxGeometry relative="1" as="geometry" />
        </mxCell>
        <mxCell id="YjS9ViXObc5qZ1YVy72e-36" value="Player inputs 2 iron ingots" style="rounded=1;whiteSpace=wrap;html=1;fillColor=#99CCFF;" parent="1" vertex="1">
          <mxGeometry x="585" y="227.5" width="80" height="45" as="geometry" />
        </mxCell>
        <mxCell id="YjS9ViXObc5qZ1YVy72e-38" value="Y" style="text;html=1;align=center;verticalAlign=middle;resizable=0;points=[];autosize=1;strokeColor=none;fillColor=none;" parent="1" vertex="1">
          <mxGeometry x="555" y="250" width="30" height="30" as="geometry" />
        </mxCell>
        <mxCell id="YjS9ViXObc5qZ1YVy72e-42" style="edgeStyle=orthogonalEdgeStyle;rounded=0;orthogonalLoop=1;jettySize=auto;html=1;" parent="1" source="YjS9ViXObc5qZ1YVy72e-39" target="YjS9ViXObc5qZ1YVy72e-41" edge="1">
          <mxGeometry relative="1" as="geometry" />
        </mxCell>
        <mxCell id="YjS9ViXObc5qZ1YVy72e-39" value="System displays the tool roots in output slot" style="rounded=1;whiteSpace=wrap;html=1;fillColor=#99CCFF;" parent="1" vertex="1">
          <mxGeometry x="690" y="226.88" width="90" height="46.25" as="geometry" />
        </mxCell>
        <mxCell id="YjS9ViXObc5qZ1YVy72e-41" value="Player takes out the tool roots from output slot" style="rounded=1;whiteSpace=wrap;html=1;fillColor=#99CCFF;" parent="1" vertex="1">
          <mxGeometry x="690" y="150" width="90" height="50" as="geometry" />
        </mxCell>
        <mxCell id="YjS9ViXObc5qZ1YVy72e-87" style="edgeStyle=orthogonalEdgeStyle;rounded=0;orthogonalLoop=1;jettySize=auto;html=1;entryX=0.5;entryY=1;entryDx=0;entryDy=0;" parent="1" source="YjS9ViXObc5qZ1YVy72e-43" target="YjS9ViXObc5qZ1YVy72e-86" edge="1">
          <mxGeometry relative="1" as="geometry" />
        </mxCell>
        <mxCell id="YjS9ViXObc5qZ1YVy72e-89" style="edgeStyle=orthogonalEdgeStyle;rounded=0;orthogonalLoop=1;jettySize=auto;html=1;entryX=0;entryY=0.5;entryDx=0;entryDy=0;" parent="1" source="YjS9ViXObc5qZ1YVy72e-43" target="YjS9ViXObc5qZ1YVy72e-46" edge="1">
          <mxGeometry relative="1" as="geometry" />
        </mxCell>
        <mxCell id="YjS9ViXObc5qZ1YVy72e-43" value="" style="rhombus;whiteSpace=wrap;html=1;" parent="1" vertex="1">
          <mxGeometry x="150" y="130" width="60" height="60" as="geometry" />
        </mxCell>
        <mxCell id="YjS9ViXObc5qZ1YVy72e-45" value="N" style="text;html=1;align=center;verticalAlign=middle;resizable=0;points=[];autosize=1;strokeColor=none;fillColor=none;" parent="1" vertex="1">
          <mxGeometry x="160" y="195" width="30" height="30" as="geometry" />
        </mxCell>
        <mxCell id="YjS9ViXObc5qZ1YVy72e-46" value="Player gets resources" style="rounded=1;whiteSpace=wrap;html=1;fillColor=#CC0000;" parent="1" vertex="1">
          <mxGeometry x="225" y="140" width="85" height="36" as="geometry" />
        </mxCell>
        <mxCell id="YjS9ViXObc5qZ1YVy72e-55" style="edgeStyle=orthogonalEdgeStyle;rounded=0;orthogonalLoop=1;jettySize=auto;html=1;entryX=0;entryY=0.5;entryDx=0;entryDy=0;" parent="1" source="YjS9ViXObc5qZ1YVy72e-49" target="YjS9ViXObc5qZ1YVy72e-51" edge="1">
          <mxGeometry relative="1" as="geometry" />
        </mxCell>
        <mxCell id="YjS9ViXObc5qZ1YVy72e-100" style="edgeStyle=orthogonalEdgeStyle;rounded=0;orthogonalLoop=1;jettySize=auto;html=1;entryX=0.5;entryY=0;entryDx=0;entryDy=0;" parent="1" source="YjS9ViXObc5qZ1YVy72e-49" target="YjS9ViXObc5qZ1YVy72e-99" edge="1">
          <mxGeometry relative="1" as="geometry" />
        </mxCell>
        <mxCell id="YjS9ViXObc5qZ1YVy72e-49" value="" style="rhombus;whiteSpace=wrap;html=1;" parent="1" vertex="1">
          <mxGeometry x="150" y="300" width="60" height="60" as="geometry" />
        </mxCell>
        <mxCell id="YjS9ViXObc5qZ1YVy72e-56" style="edgeStyle=orthogonalEdgeStyle;rounded=0;orthogonalLoop=1;jettySize=auto;html=1;" parent="1" source="YjS9ViXObc5qZ1YVy72e-51" target="YjS9ViXObc5qZ1YVy72e-52" edge="1">
          <mxGeometry relative="1" as="geometry" />
        </mxCell>
        <mxCell id="YjS9ViXObc5qZ1YVy72e-51" value="Player access the metal press machine" style="rounded=1;whiteSpace=wrap;html=1;fillColor=#FF99CC;" parent="1" vertex="1">
          <mxGeometry x="250" y="307.5" width="90" height="45" as="geometry" />
        </mxCell>
        <mxCell id="YjS9ViXObc5qZ1YVy72e-59" style="edgeStyle=orthogonalEdgeStyle;rounded=0;orthogonalLoop=1;jettySize=auto;html=1;" parent="1" source="YjS9ViXObc5qZ1YVy72e-52" target="YjS9ViXObc5qZ1YVy72e-57" edge="1">
          <mxGeometry relative="1" as="geometry" />
        </mxCell>
        <mxCell id="YjS9ViXObc5qZ1YVy72e-52" value="System displays the metal press machine GUI" style="rounded=1;whiteSpace=wrap;html=1;fillColor=#FF99CC;" parent="1" vertex="1">
          <mxGeometry x="375" y="307.5" width="90" height="45" as="geometry" />
        </mxCell>
        <mxCell id="YjS9ViXObc5qZ1YVy72e-61" value="" style="edgeStyle=orthogonalEdgeStyle;rounded=0;orthogonalLoop=1;jettySize=auto;html=1;" parent="1" source="YjS9ViXObc5qZ1YVy72e-53" target="YjS9ViXObc5qZ1YVy72e-54" edge="1">
          <mxGeometry relative="1" as="geometry" />
        </mxCell>
        <mxCell id="YjS9ViXObc5qZ1YVy72e-53" value="Player inputs 4 iron ingots" style="rounded=1;whiteSpace=wrap;html=1;fillColor=#FF99CC;" parent="1" vertex="1">
          <mxGeometry x="585" y="307.5" width="90" height="45" as="geometry" />
        </mxCell>
        <mxCell id="YjS9ViXObc5qZ1YVy72e-65" style="edgeStyle=orthogonalEdgeStyle;rounded=0;orthogonalLoop=1;jettySize=auto;html=1;entryX=0.5;entryY=0;entryDx=0;entryDy=0;" parent="1" source="YjS9ViXObc5qZ1YVy72e-54" target="YjS9ViXObc5qZ1YVy72e-64" edge="1">
          <mxGeometry relative="1" as="geometry" />
        </mxCell>
        <mxCell id="YjS9ViXObc5qZ1YVy72e-54" value="System displays the tool plates in output slot" style="rounded=1;whiteSpace=wrap;html=1;fillColor=#FF99CC;" parent="1" vertex="1">
          <mxGeometry x="690" y="307.5" width="90" height="45" as="geometry" />
        </mxCell>
        <mxCell id="YjS9ViXObc5qZ1YVy72e-60" style="edgeStyle=orthogonalEdgeStyle;rounded=0;orthogonalLoop=1;jettySize=auto;html=1;entryX=0;entryY=0.5;entryDx=0;entryDy=0;" parent="1" source="YjS9ViXObc5qZ1YVy72e-57" target="YjS9ViXObc5qZ1YVy72e-53" edge="1">
          <mxGeometry relative="1" as="geometry" />
        </mxCell>
        <mxCell id="AHHytjyTBA45PScuv-xg-9" style="edgeStyle=orthogonalEdgeStyle;rounded=0;orthogonalLoop=1;jettySize=auto;html=1;" edge="1" parent="1" source="YjS9ViXObc5qZ1YVy72e-57" target="AHHytjyTBA45PScuv-xg-5">
          <mxGeometry relative="1" as="geometry" />
        </mxCell>
        <mxCell id="YjS9ViXObc5qZ1YVy72e-57" value="" style="rhombus;whiteSpace=wrap;html=1;" parent="1" vertex="1">
          <mxGeometry x="500" y="300" width="60" height="60" as="geometry" />
        </mxCell>
        <mxCell id="YjS9ViXObc5qZ1YVy72e-62" value="N" style="text;html=1;align=center;verticalAlign=middle;resizable=0;points=[];autosize=1;strokeColor=none;fillColor=none;" parent="1" vertex="1">
          <mxGeometry x="90" y="330" width="30" height="30" as="geometry" />
        </mxCell>
        <mxCell id="YjS9ViXObc5qZ1YVy72e-63" value="Y" style="text;html=1;align=center;verticalAlign=middle;resizable=0;points=[];autosize=1;strokeColor=none;fillColor=none;" parent="1" vertex="1">
          <mxGeometry x="205" y="328" width="30" height="30" as="geometry" />
        </mxCell>
        <mxCell id="YjS9ViXObc5qZ1YVy72e-64" value="Player takes out the tool plates from output slot" style="rounded=1;whiteSpace=wrap;html=1;fillColor=#FF99CC;" parent="1" vertex="1">
          <mxGeometry x="690" y="380" width="90" height="40" as="geometry" />
        </mxCell>
        <mxCell id="YjS9ViXObc5qZ1YVy72e-66" value="Y" style="text;html=1;align=center;verticalAlign=middle;resizable=0;points=[];autosize=1;strokeColor=none;fillColor=none;" parent="1" vertex="1">
          <mxGeometry x="555" y="328" width="30" height="30" as="geometry" />
        </mxCell>
        <mxCell id="YjS9ViXObc5qZ1YVy72e-68" value="&lt;font style=&quot;font-size: 9px;&quot;&gt;Does the player has&amp;nbsp;&lt;/font&gt;&lt;div&gt;&lt;font style=&quot;font-size: 9px;&quot;&gt;metal press machine?&lt;/font&gt;&lt;/div&gt;" style="text;html=1;align=center;verticalAlign=middle;resizable=0;points=[];autosize=1;strokeColor=none;fillColor=none;" parent="1" vertex="1">
          <mxGeometry x="180" y="273.13" width="110" height="40" as="geometry" />
        </mxCell>
        <mxCell id="YjS9ViXObc5qZ1YVy72e-69" value="&lt;font style=&quot;font-size: 9px;&quot;&gt;Does the&amp;nbsp;&lt;/font&gt;&lt;div&gt;&lt;font style=&quot;font-size: 9px;&quot;&gt;metal press machine&amp;nbsp;&lt;/font&gt;&lt;div&gt;&lt;font style=&quot;font-size: 9px;&quot;&gt;has energy?&lt;/font&gt;&lt;/div&gt;&lt;/div&gt;" style="text;html=1;align=center;verticalAlign=middle;resizable=0;points=[];autosize=1;strokeColor=none;fillColor=none;" parent="1" vertex="1">
          <mxGeometry x="435" y="263.13" width="110" height="60" as="geometry" />
        </mxCell>
        <mxCell id="YjS9ViXObc5qZ1YVy72e-76" style="edgeStyle=orthogonalEdgeStyle;rounded=0;orthogonalLoop=1;jettySize=auto;html=1;" parent="1" source="YjS9ViXObc5qZ1YVy72e-70" target="YjS9ViXObc5qZ1YVy72e-74" edge="1">
          <mxGeometry relative="1" as="geometry" />
        </mxCell>
        <mxCell id="YjS9ViXObc5qZ1YVy72e-70" value="Player arranges 3 tool plates and 2 tool roots in the input slot" style="rounded=1;whiteSpace=wrap;html=1;fillColor=#FFFF99;" parent="1" vertex="1">
          <mxGeometry y="760" width="120" height="50" as="geometry" />
        </mxCell>
        <mxCell id="YjS9ViXObc5qZ1YVy72e-72" value="Is receipe valid?" style="text;html=1;align=center;verticalAlign=middle;resizable=0;points=[];autosize=1;strokeColor=none;fillColor=none;" parent="1" vertex="1">
          <mxGeometry x="50" y="810" width="110" height="30" as="geometry" />
        </mxCell>
        <mxCell id="YjS9ViXObc5qZ1YVy72e-78" style="edgeStyle=orthogonalEdgeStyle;rounded=0;orthogonalLoop=1;jettySize=auto;html=1;entryX=0.5;entryY=0;entryDx=0;entryDy=0;" parent="1" source="YjS9ViXObc5qZ1YVy72e-74" target="YjS9ViXObc5qZ1YVy72e-77" edge="1">
          <mxGeometry relative="1" as="geometry" />
        </mxCell>
        <mxCell id="YjS9ViXObc5qZ1YVy72e-81" style="edgeStyle=orthogonalEdgeStyle;rounded=0;orthogonalLoop=1;jettySize=auto;html=1;entryX=0;entryY=0.5;entryDx=0;entryDy=0;" parent="1" source="YjS9ViXObc5qZ1YVy72e-74" target="YjS9ViXObc5qZ1YVy72e-80" edge="1">
          <mxGeometry relative="1" as="geometry" />
        </mxCell>
        <mxCell id="YjS9ViXObc5qZ1YVy72e-74" value="" style="rhombus;whiteSpace=wrap;html=1;" parent="1" vertex="1">
          <mxGeometry x="30" y="897.5" width="60" height="60" as="geometry" />
        </mxCell>
        <mxCell id="AHHytjyTBA45PScuv-xg-53" style="edgeStyle=orthogonalEdgeStyle;rounded=0;orthogonalLoop=1;jettySize=auto;html=1;entryX=0.5;entryY=0;entryDx=0;entryDy=0;" edge="1" parent="1" source="YjS9ViXObc5qZ1YVy72e-77" target="AHHytjyTBA45PScuv-xg-52">
          <mxGeometry relative="1" as="geometry" />
        </mxCell>
        <mxCell id="YjS9ViXObc5qZ1YVy72e-77" value="System displays the lumber axe in the output slot" style="rounded=1;whiteSpace=wrap;html=1;fillColor=#FFFF99;" parent="1" vertex="1">
          <mxGeometry y="990" width="120" height="50" as="geometry" />
        </mxCell>
        <mxCell id="YjS9ViXObc5qZ1YVy72e-79" value="Y" style="text;html=1;align=center;verticalAlign=middle;resizable=0;points=[];autosize=1;strokeColor=none;fillColor=none;" parent="1" vertex="1">
          <mxGeometry x="60" y="950" width="30" height="30" as="geometry" />
        </mxCell>
        <mxCell id="YjS9ViXObc5qZ1YVy72e-80" value="System does not display the lumber axe in the output slot" style="rounded=1;whiteSpace=wrap;html=1;fillColor=#00FFFF;" parent="1" vertex="1">
          <mxGeometry x="113.75" y="905" width="115" height="45" as="geometry" />
        </mxCell>
        <mxCell id="YjS9ViXObc5qZ1YVy72e-82" value="N" style="text;html=1;align=center;verticalAlign=middle;resizable=0;points=[];autosize=1;strokeColor=none;fillColor=none;" parent="1" vertex="1">
          <mxGeometry x="62.5" y="875" width="30" height="30" as="geometry" />
        </mxCell>
        <mxCell id="YjS9ViXObc5qZ1YVy72e-84" value="Y" style="text;html=1;align=center;verticalAlign=middle;resizable=0;points=[];autosize=1;strokeColor=none;fillColor=none;" parent="1" vertex="1">
          <mxGeometry x="30" y="730" width="30" height="30" as="geometry" />
        </mxCell>
        <mxCell id="YjS9ViXObc5qZ1YVy72e-85" value="N" style="text;html=1;align=center;verticalAlign=middle;resizable=0;points=[];autosize=1;strokeColor=none;fillColor=none;" parent="1" vertex="1">
          <mxGeometry x="200" y="130" width="30" height="30" as="geometry" />
        </mxCell>
        <mxCell id="YjS9ViXObc5qZ1YVy72e-91" style="edgeStyle=orthogonalEdgeStyle;rounded=0;orthogonalLoop=1;jettySize=auto;html=1;entryX=0.5;entryY=1;entryDx=0;entryDy=0;" parent="1" source="YjS9ViXObc5qZ1YVy72e-86" target="YjS9ViXObc5qZ1YVy72e-90" edge="1">
          <mxGeometry relative="1" as="geometry" />
        </mxCell>
        <mxCell id="YjS9ViXObc5qZ1YVy72e-86" value="Player arranges resources in the input slot" style="rounded=1;whiteSpace=wrap;html=1;fillColor=#FF00FF;" parent="1" vertex="1">
          <mxGeometry x="135" y="70" width="90" height="40" as="geometry" />
        </mxCell>
        <mxCell id="YjS9ViXObc5qZ1YVy72e-88" value="Y" style="text;html=1;align=center;verticalAlign=middle;resizable=0;points=[];autosize=1;strokeColor=none;fillColor=none;" parent="1" vertex="1">
          <mxGeometry x="175" y="110" width="30" height="30" as="geometry" />
        </mxCell>
        <mxCell id="YjS9ViXObc5qZ1YVy72e-93" style="edgeStyle=orthogonalEdgeStyle;rounded=0;orthogonalLoop=1;jettySize=auto;html=1;entryX=0;entryY=0.5;entryDx=0;entryDy=0;" parent="1" source="YjS9ViXObc5qZ1YVy72e-90" target="YjS9ViXObc5qZ1YVy72e-92" edge="1">
          <mxGeometry relative="1" as="geometry" />
        </mxCell>
        <mxCell id="YjS9ViXObc5qZ1YVy72e-90" value="System display the machine in output slot" style="rounded=1;whiteSpace=wrap;html=1;fillColor=#FF00FF;" parent="1" vertex="1">
          <mxGeometry x="130" y="10" width="100" height="40" as="geometry" />
        </mxCell>
        <mxCell id="YjS9ViXObc5qZ1YVy72e-92" value="Player takes out the machine from output slot" style="rounded=1;whiteSpace=wrap;html=1;fillColor=#FF00FF;" parent="1" vertex="1">
          <mxGeometry x="260" y="10" width="95" height="40" as="geometry" />
        </mxCell>
        <mxCell id="YjS9ViXObc5qZ1YVy72e-96" value="" style="endArrow=classic;html=1;rounded=0;exitX=0.632;exitY=1;exitDx=0;exitDy=0;exitPerimeter=0;entryX=0.75;entryY=0;entryDx=0;entryDy=0;" parent="1" source="YjS9ViXObc5qZ1YVy72e-92" target="YjS9ViXObc5qZ1YVy72e-27" edge="1">
          <mxGeometry width="50" height="50" relative="1" as="geometry">
            <mxPoint x="420" y="200" as="sourcePoint" />
            <mxPoint x="470" y="150" as="targetPoint" />
          </mxGeometry>
        </mxCell>
        <mxCell id="YjS9ViXObc5qZ1YVy72e-97" value="" style="endArrow=classic;html=1;rounded=0;entryX=1;entryY=0.5;entryDx=0;entryDy=0;exitX=0.614;exitY=0.032;exitDx=0;exitDy=0;exitPerimeter=0;" parent="1" target="YjS9ViXObc5qZ1YVy72e-70" edge="1" source="YjS9ViXObc5qZ1YVy72e-80">
          <mxGeometry width="50" height="50" relative="1" as="geometry">
            <mxPoint x="185" y="865" as="sourcePoint" />
            <mxPoint x="235" y="815" as="targetPoint" />
            <Array as="points">
              <mxPoint x="185" y="785" />
            </Array>
          </mxGeometry>
        </mxCell>
        <mxCell id="YjS9ViXObc5qZ1YVy72e-106" style="edgeStyle=orthogonalEdgeStyle;rounded=0;orthogonalLoop=1;jettySize=auto;html=1;entryX=0;entryY=0.5;entryDx=0;entryDy=0;" parent="1" source="YjS9ViXObc5qZ1YVy72e-99" target="YjS9ViXObc5qZ1YVy72e-105" edge="1">
          <mxGeometry relative="1" as="geometry" />
        </mxCell>
        <mxCell id="YjS9ViXObc5qZ1YVy72e-109" style="edgeStyle=orthogonalEdgeStyle;rounded=0;orthogonalLoop=1;jettySize=auto;html=1;entryX=0.5;entryY=0;entryDx=0;entryDy=0;" parent="1" source="YjS9ViXObc5qZ1YVy72e-99" target="YjS9ViXObc5qZ1YVy72e-108" edge="1">
          <mxGeometry relative="1" as="geometry" />
        </mxCell>
        <mxCell id="YjS9ViXObc5qZ1YVy72e-99" value="" style="rhombus;whiteSpace=wrap;html=1;" parent="1" vertex="1">
          <mxGeometry x="150" y="390" width="60" height="60" as="geometry" />
        </mxCell>
        <mxCell id="YjS9ViXObc5qZ1YVy72e-101" value="N" style="text;html=1;align=center;verticalAlign=middle;resizable=0;points=[];autosize=1;strokeColor=none;fillColor=none;" parent="1" vertex="1">
          <mxGeometry x="150" y="350" width="30" height="30" as="geometry" />
        </mxCell>
        <mxCell id="YjS9ViXObc5qZ1YVy72e-102" value="&lt;font style=&quot;font-size: 7px;&quot;&gt;Has player the necessary&amp;nbsp;&lt;/font&gt;&lt;div&gt;&lt;font style=&quot;font-size: 7px;&quot;&gt;resources?&lt;/font&gt;&lt;/div&gt;" style="text;html=1;align=center;verticalAlign=middle;resizable=0;points=[];autosize=1;strokeColor=none;fillColor=none;" parent="1" vertex="1">
          <mxGeometry x="80" y="120" width="100" height="40" as="geometry" />
        </mxCell>
        <mxCell id="YjS9ViXObc5qZ1YVy72e-103" value="&lt;font style=&quot;font-size: 9px;&quot;&gt;Has player the necessary&amp;nbsp;&lt;/font&gt;&lt;div&gt;&lt;font style=&quot;font-size: 9px;&quot;&gt;resources?&lt;/font&gt;&lt;/div&gt;" style="text;html=1;align=center;verticalAlign=middle;resizable=0;points=[];autosize=1;strokeColor=none;fillColor=none;" parent="1" vertex="1">
          <mxGeometry x="60" y="367" width="130" height="40" as="geometry" />
        </mxCell>
        <mxCell id="YjS9ViXObc5qZ1YVy72e-105" value="Player gets resources" style="rounded=1;whiteSpace=wrap;html=1;fillColor=#CC0000;" parent="1" vertex="1">
          <mxGeometry x="228.75" y="407" width="77.5" height="26" as="geometry" />
        </mxCell>
        <mxCell id="YjS9ViXObc5qZ1YVy72e-107" value="N" style="text;html=1;align=center;verticalAlign=middle;resizable=0;points=[];autosize=1;strokeColor=none;fillColor=none;" parent="1" vertex="1">
          <mxGeometry x="200" y="390" width="30" height="30" as="geometry" />
        </mxCell>
        <mxCell id="YjS9ViXObc5qZ1YVy72e-112" style="edgeStyle=orthogonalEdgeStyle;rounded=0;orthogonalLoop=1;jettySize=auto;html=1;entryX=0.5;entryY=0;entryDx=0;entryDy=0;" parent="1" source="YjS9ViXObc5qZ1YVy72e-108" target="YjS9ViXObc5qZ1YVy72e-111" edge="1">
          <mxGeometry relative="1" as="geometry" />
        </mxCell>
        <mxCell id="YjS9ViXObc5qZ1YVy72e-108" value="Player arranges resources in the input slot" style="rounded=1;whiteSpace=wrap;html=1;fillColor=#FF00FF;" parent="1" vertex="1">
          <mxGeometry x="135" y="480" width="90" height="40" as="geometry" />
        </mxCell>
        <mxCell id="YjS9ViXObc5qZ1YVy72e-110" value="Y" style="text;html=1;align=center;verticalAlign=middle;resizable=0;points=[];autosize=1;strokeColor=none;fillColor=none;" parent="1" vertex="1">
          <mxGeometry x="180" y="440" width="30" height="30" as="geometry" />
        </mxCell>
        <mxCell id="YjS9ViXObc5qZ1YVy72e-114" style="edgeStyle=orthogonalEdgeStyle;rounded=0;orthogonalLoop=1;jettySize=auto;html=1;entryX=0;entryY=0.5;entryDx=0;entryDy=0;" parent="1" source="YjS9ViXObc5qZ1YVy72e-111" target="YjS9ViXObc5qZ1YVy72e-113" edge="1">
          <mxGeometry relative="1" as="geometry" />
        </mxCell>
        <mxCell id="YjS9ViXObc5qZ1YVy72e-111" value="System display the machine in output slot" style="rounded=1;whiteSpace=wrap;html=1;fillColor=#FF00FF;" parent="1" vertex="1">
          <mxGeometry x="130" y="550" width="100" height="40" as="geometry" />
        </mxCell>
        <mxCell id="YjS9ViXObc5qZ1YVy72e-113" value="Player takes out the machine from output slot" style="rounded=1;whiteSpace=wrap;html=1;fillColor=#FF00FF;" parent="1" vertex="1">
          <mxGeometry x="280" y="550" width="95" height="40" as="geometry" />
        </mxCell>
        <mxCell id="YjS9ViXObc5qZ1YVy72e-117" style="edgeStyle=orthogonalEdgeStyle;rounded=0;orthogonalLoop=1;jettySize=auto;html=1;entryX=0.861;entryY=0.944;entryDx=0;entryDy=0;entryPerimeter=0;" parent="1" source="YjS9ViXObc5qZ1YVy72e-113" target="YjS9ViXObc5qZ1YVy72e-51" edge="1">
          <mxGeometry relative="1" as="geometry" />
        </mxCell>
        <mxCell id="AHHytjyTBA45PScuv-xg-2" value="" style="endArrow=classic;html=1;rounded=0;exitX=0.664;exitY=0.017;exitDx=0;exitDy=0;exitPerimeter=0;entryX=0.93;entryY=0.101;entryDx=0;entryDy=0;entryPerimeter=0;" edge="1" parent="1" source="YjS9ViXObc5qZ1YVy72e-105" target="YjS9ViXObc5qZ1YVy72e-103">
          <mxGeometry width="50" height="50" relative="1" as="geometry">
            <mxPoint x="220" y="410" as="sourcePoint" />
            <mxPoint x="270" y="360" as="targetPoint" />
            <Array as="points">
              <mxPoint x="280" y="371" />
            </Array>
          </mxGeometry>
        </mxCell>
        <mxCell id="AHHytjyTBA45PScuv-xg-12" style="edgeStyle=orthogonalEdgeStyle;rounded=0;orthogonalLoop=1;jettySize=auto;html=1;entryX=0;entryY=0.5;entryDx=0;entryDy=0;" edge="1" parent="1" source="AHHytjyTBA45PScuv-xg-5" target="AHHytjyTBA45PScuv-xg-11">
          <mxGeometry relative="1" as="geometry" />
        </mxCell>
        <mxCell id="AHHytjyTBA45PScuv-xg-30" style="edgeStyle=orthogonalEdgeStyle;rounded=0;orthogonalLoop=1;jettySize=auto;html=1;entryX=1;entryY=0.5;entryDx=0;entryDy=0;" edge="1" parent="1" source="AHHytjyTBA45PScuv-xg-5" target="AHHytjyTBA45PScuv-xg-29">
          <mxGeometry relative="1" as="geometry" />
        </mxCell>
        <mxCell id="AHHytjyTBA45PScuv-xg-5" value="" style="rhombus;whiteSpace=wrap;html=1;direction=south;" vertex="1" parent="1">
          <mxGeometry x="500" y="635" width="60" height="60" as="geometry" />
        </mxCell>
        <mxCell id="AHHytjyTBA45PScuv-xg-6" value="&lt;font style=&quot;font-size: 9px;&quot;&gt;Is the generator&amp;nbsp;&lt;/font&gt;&lt;div&gt;&lt;font style=&quot;font-size: 9px;&quot;&gt;created?&lt;/font&gt;&lt;/div&gt;" style="text;html=1;align=center;verticalAlign=middle;resizable=0;points=[];autosize=1;strokeColor=none;fillColor=none;" vertex="1" parent="1">
          <mxGeometry x="525" y="550" width="90" height="40" as="geometry" />
        </mxCell>
        <mxCell id="AHHytjyTBA45PScuv-xg-16" style="edgeStyle=orthogonalEdgeStyle;rounded=0;orthogonalLoop=1;jettySize=auto;html=1;entryX=0;entryY=0.5;entryDx=0;entryDy=0;" edge="1" parent="1" source="AHHytjyTBA45PScuv-xg-11" target="AHHytjyTBA45PScuv-xg-15">
          <mxGeometry relative="1" as="geometry" />
        </mxCell>
        <mxCell id="AHHytjyTBA45PScuv-xg-23" style="edgeStyle=orthogonalEdgeStyle;rounded=0;orthogonalLoop=1;jettySize=auto;html=1;entryX=0.5;entryY=0;entryDx=0;entryDy=0;" edge="1" parent="1" source="AHHytjyTBA45PScuv-xg-11" target="AHHytjyTBA45PScuv-xg-22">
          <mxGeometry relative="1" as="geometry" />
        </mxCell>
        <mxCell id="AHHytjyTBA45PScuv-xg-11" value="" style="rhombus;whiteSpace=wrap;html=1;direction=south;" vertex="1" parent="1">
          <mxGeometry x="500" y="750" width="60" height="60" as="geometry" />
        </mxCell>
        <mxCell id="AHHytjyTBA45PScuv-xg-13" value="N" style="text;html=1;align=center;verticalAlign=middle;resizable=0;points=[];autosize=1;strokeColor=none;fillColor=none;" vertex="1" parent="1">
          <mxGeometry x="495" y="730" width="30" height="30" as="geometry" />
        </mxCell>
        <mxCell id="AHHytjyTBA45PScuv-xg-14" value="&lt;font size=&quot;1&quot;&gt;Has player the neccesary&lt;/font&gt;&lt;div&gt;&lt;font size=&quot;1&quot;&gt;resources?&lt;/font&gt;&lt;/div&gt;" style="text;html=1;align=center;verticalAlign=middle;resizable=0;points=[];autosize=1;strokeColor=none;fillColor=none;" vertex="1" parent="1">
          <mxGeometry x="520" y="695" width="140" height="40" as="geometry" />
        </mxCell>
        <mxCell id="AHHytjyTBA45PScuv-xg-15" value="Player gets resources" style="rounded=1;whiteSpace=wrap;html=1;fillColor=#CC0000;" vertex="1" parent="1">
          <mxGeometry x="610" y="760" width="100" height="40" as="geometry" />
        </mxCell>
        <mxCell id="AHHytjyTBA45PScuv-xg-17" value="N" style="text;html=1;align=center;verticalAlign=middle;resizable=0;points=[];autosize=1;strokeColor=none;fillColor=none;" vertex="1" parent="1">
          <mxGeometry x="555" y="760" width="30" height="30" as="geometry" />
        </mxCell>
        <mxCell id="AHHytjyTBA45PScuv-xg-18" value="" style="endArrow=classic;html=1;rounded=0;exitX=0.4;exitY=0;exitDx=0;exitDy=0;exitPerimeter=0;" edge="1" parent="1" source="AHHytjyTBA45PScuv-xg-15">
          <mxGeometry width="50" height="50" relative="1" as="geometry">
            <mxPoint x="650" y="741.8" as="sourcePoint" />
            <mxPoint x="530" y="695" as="targetPoint" />
            <Array as="points">
              <mxPoint x="650" y="695" />
            </Array>
          </mxGeometry>
        </mxCell>
        <mxCell id="AHHytjyTBA45PScuv-xg-21" value="N" style="text;html=1;align=center;verticalAlign=middle;resizable=0;points=[];autosize=1;strokeColor=none;fillColor=none;" vertex="1" parent="1">
          <mxGeometry x="500" y="358" width="30" height="30" as="geometry" />
        </mxCell>
        <mxCell id="AHHytjyTBA45PScuv-xg-25" style="edgeStyle=orthogonalEdgeStyle;rounded=0;orthogonalLoop=1;jettySize=auto;html=1;" edge="1" parent="1" source="AHHytjyTBA45PScuv-xg-22" target="AHHytjyTBA45PScuv-xg-24">
          <mxGeometry relative="1" as="geometry" />
        </mxCell>
        <mxCell id="AHHytjyTBA45PScuv-xg-22" value="Player arranges resources in the input slot" style="rounded=1;whiteSpace=wrap;html=1;fillColor=#FF00FF;" vertex="1" parent="1">
          <mxGeometry x="485" y="840" width="90" height="40" as="geometry" />
        </mxCell>
        <mxCell id="AHHytjyTBA45PScuv-xg-27" style="edgeStyle=orthogonalEdgeStyle;rounded=0;orthogonalLoop=1;jettySize=auto;html=1;" edge="1" parent="1" source="AHHytjyTBA45PScuv-xg-24" target="AHHytjyTBA45PScuv-xg-26">
          <mxGeometry relative="1" as="geometry" />
        </mxCell>
        <mxCell id="AHHytjyTBA45PScuv-xg-24" value="System displays the generator in output slot" style="rounded=1;whiteSpace=wrap;html=1;fillColor=#FF00FF;" vertex="1" parent="1">
          <mxGeometry x="480" y="910" width="100" height="40" as="geometry" />
        </mxCell>
        <mxCell id="AHHytjyTBA45PScuv-xg-35" style="edgeStyle=orthogonalEdgeStyle;rounded=0;orthogonalLoop=1;jettySize=auto;html=1;entryX=0.25;entryY=1;entryDx=0;entryDy=0;" edge="1" parent="1" source="AHHytjyTBA45PScuv-xg-26" target="AHHytjyTBA45PScuv-xg-29">
          <mxGeometry relative="1" as="geometry" />
        </mxCell>
        <mxCell id="AHHytjyTBA45PScuv-xg-26" value="Player takes out the generator from output slot" style="rounded=1;whiteSpace=wrap;html=1;fillColor=#FF00FF;" vertex="1" parent="1">
          <mxGeometry x="355" y="910" width="95" height="40" as="geometry" />
        </mxCell>
        <mxCell id="AHHytjyTBA45PScuv-xg-28" value="Y" style="text;html=1;align=center;verticalAlign=middle;resizable=0;points=[];autosize=1;strokeColor=none;fillColor=none;" vertex="1" parent="1">
          <mxGeometry x="535" y="808" width="30" height="30" as="geometry" />
        </mxCell>
        <mxCell id="AHHytjyTBA45PScuv-xg-33" value="" style="edgeStyle=orthogonalEdgeStyle;rounded=0;orthogonalLoop=1;jettySize=auto;html=1;" edge="1" parent="1" source="AHHytjyTBA45PScuv-xg-29" target="AHHytjyTBA45PScuv-xg-32">
          <mxGeometry relative="1" as="geometry" />
        </mxCell>
        <mxCell id="AHHytjyTBA45PScuv-xg-29" value="Player puts generator near blocks which needs energy" style="rounded=1;whiteSpace=wrap;html=1;fillColor=#67AB9F;" vertex="1" parent="1">
          <mxGeometry x="380" y="636.25" width="90" height="57.5" as="geometry" />
        </mxCell>
        <mxCell id="AHHytjyTBA45PScuv-xg-37" value="" style="edgeStyle=orthogonalEdgeStyle;rounded=0;orthogonalLoop=1;jettySize=auto;html=1;" edge="1" parent="1" source="AHHytjyTBA45PScuv-xg-32" target="AHHytjyTBA45PScuv-xg-36">
          <mxGeometry relative="1" as="geometry" />
        </mxCell>
        <mxCell id="AHHytjyTBA45PScuv-xg-32" value="Player access the generator" style="whiteSpace=wrap;html=1;rounded=1;fillColor=#67AB9F;" vertex="1" parent="1">
          <mxGeometry x="235" y="642.5" width="95" height="45" as="geometry" />
        </mxCell>
        <mxCell id="AHHytjyTBA45PScuv-xg-40" style="edgeStyle=orthogonalEdgeStyle;rounded=0;orthogonalLoop=1;jettySize=auto;html=1;entryX=0.5;entryY=0;entryDx=0;entryDy=0;" edge="1" parent="1" source="AHHytjyTBA45PScuv-xg-36" target="AHHytjyTBA45PScuv-xg-39">
          <mxGeometry relative="1" as="geometry" />
        </mxCell>
        <mxCell id="AHHytjyTBA45PScuv-xg-36" value="System displays the generator GUI" style="whiteSpace=wrap;html=1;rounded=1;fillColor=#67AB9F;" vertex="1" parent="1">
          <mxGeometry x="237.5" y="715" width="92.5" height="45" as="geometry" />
        </mxCell>
        <mxCell id="AHHytjyTBA45PScuv-xg-42" style="edgeStyle=orthogonalEdgeStyle;rounded=0;orthogonalLoop=1;jettySize=auto;html=1;entryX=0.5;entryY=0;entryDx=0;entryDy=0;" edge="1" parent="1" source="AHHytjyTBA45PScuv-xg-39" target="AHHytjyTBA45PScuv-xg-41">
          <mxGeometry relative="1" as="geometry" />
        </mxCell>
        <mxCell id="AHHytjyTBA45PScuv-xg-39" value="Player puts a stack of coal" style="whiteSpace=wrap;html=1;rounded=1;fillColor=#67AB9F;" vertex="1" parent="1">
          <mxGeometry x="237.5" y="790" width="92.5" height="45" as="geometry" />
        </mxCell>
        <mxCell id="AHHytjyTBA45PScuv-xg-44" value="" style="edgeStyle=orthogonalEdgeStyle;rounded=0;orthogonalLoop=1;jettySize=auto;html=1;" edge="1" parent="1" source="AHHytjyTBA45PScuv-xg-41" target="AHHytjyTBA45PScuv-xg-43">
          <mxGeometry relative="1" as="geometry" />
        </mxCell>
        <mxCell id="AHHytjyTBA45PScuv-xg-41" value="The system generates energy" style="whiteSpace=wrap;html=1;rounded=1;fillColor=#67AB9F;" vertex="1" parent="1">
          <mxGeometry x="237.5" y="865" width="92.5" height="45" as="geometry" />
        </mxCell>
        <mxCell id="AHHytjyTBA45PScuv-xg-43" value="Player puts&amp;nbsp;" style="whiteSpace=wrap;html=1;rounded=1;fillColor=#67AB9F;" vertex="1" parent="1">
          <mxGeometry x="235" y="960" width="96.25" height="40" as="geometry" />
        </mxCell>
        <mxCell id="AHHytjyTBA45PScuv-xg-45" value="" style="endArrow=classic;html=1;rounded=0;" edge="1" parent="1">
          <mxGeometry width="50" height="50" relative="1" as="geometry">
            <mxPoint x="530" y="220" as="sourcePoint" />
            <mxPoint x="530" y="480" as="targetPoint" />
            <Array as="points">
              <mxPoint x="530" y="120" />
              <mxPoint x="800" y="120" />
              <mxPoint x="800" y="480" />
            </Array>
          </mxGeometry>
        </mxCell>
        <mxCell id="AHHytjyTBA45PScuv-xg-46" value="N" style="text;html=1;align=center;verticalAlign=middle;resizable=0;points=[];autosize=1;strokeColor=none;fillColor=none;" vertex="1" parent="1">
          <mxGeometry x="535" y="197.5" width="30" height="30" as="geometry" />
        </mxCell>
        <mxCell id="AHHytjyTBA45PScuv-xg-47" value="Y" style="text;html=1;align=center;verticalAlign=middle;resizable=0;points=[];autosize=1;strokeColor=none;fillColor=none;" vertex="1" parent="1">
          <mxGeometry x="475" y="638" width="30" height="30" as="geometry" />
        </mxCell>
        <mxCell id="AHHytjyTBA45PScuv-xg-48" value="" style="endArrow=classic;html=1;rounded=0;exitX=0.5;exitY=1;exitDx=0;exitDy=0;entryX=0.913;entryY=-0.032;entryDx=0;entryDy=0;entryPerimeter=0;" edge="1" parent="1" source="AHHytjyTBA45PScuv-xg-43" target="YjS9ViXObc5qZ1YVy72e-27">
          <mxGeometry width="50" height="50" relative="1" as="geometry">
            <mxPoint x="290" y="1060" as="sourcePoint" />
            <mxPoint x="360" y="80" as="targetPoint" />
            <Array as="points">
              <mxPoint x="283" y="1040" />
              <mxPoint x="820" y="1040" />
              <mxPoint x="820" y="80" />
              <mxPoint x="332" y="80" />
            </Array>
          </mxGeometry>
        </mxCell>
        <mxCell id="AHHytjyTBA45PScuv-xg-49" value="" style="endArrow=classic;html=1;rounded=0;exitX=0;exitY=0.5;exitDx=0;exitDy=0;entryX=1;entryY=1;entryDx=0;entryDy=0;" edge="1" parent="1" source="AHHytjyTBA45PScuv-xg-41" target="YjS9ViXObc5qZ1YVy72e-51">
          <mxGeometry width="50" height="50" relative="1" as="geometry">
            <mxPoint x="200" y="880" as="sourcePoint" />
            <mxPoint x="440" y="420" as="targetPoint" />
            <Array as="points">
              <mxPoint x="200" y="888" />
              <mxPoint x="200" y="630" />
              <mxPoint x="440" y="630" />
            </Array>
          </mxGeometry>
        </mxCell>
        <mxCell id="AHHytjyTBA45PScuv-xg-50" value="" style="endArrow=classic;html=1;rounded=0;exitX=0.644;exitY=0.972;exitDx=0;exitDy=0;exitPerimeter=0;" edge="1" parent="1" source="YjS9ViXObc5qZ1YVy72e-46">
          <mxGeometry width="50" height="50" relative="1" as="geometry">
            <mxPoint x="320" y="260" as="sourcePoint" />
            <mxPoint x="180" y="200" as="targetPoint" />
            <Array as="points">
              <mxPoint x="280" y="200" />
            </Array>
          </mxGeometry>
        </mxCell>
        <mxCell id="AHHytjyTBA45PScuv-xg-56" style="edgeStyle=orthogonalEdgeStyle;rounded=0;orthogonalLoop=1;jettySize=auto;html=1;" edge="1" parent="1" source="AHHytjyTBA45PScuv-xg-52" target="AHHytjyTBA45PScuv-xg-55">
          <mxGeometry relative="1" as="geometry" />
        </mxCell>
        <mxCell id="AHHytjyTBA45PScuv-xg-52" value="Player takes out the lumber axe from output slot" style="rounded=1;whiteSpace=wrap;html=1;fillColor=#FFFF99;" vertex="1" parent="1">
          <mxGeometry y="1100" width="120" height="60" as="geometry" />
        </mxCell>
        <mxCell id="AHHytjyTBA45PScuv-xg-58" style="edgeStyle=orthogonalEdgeStyle;rounded=0;orthogonalLoop=1;jettySize=auto;html=1;" edge="1" parent="1" source="AHHytjyTBA45PScuv-xg-55" target="AHHytjyTBA45PScuv-xg-57">
          <mxGeometry relative="1" as="geometry" />
        </mxCell>
        <mxCell id="AHHytjyTBA45PScuv-xg-55" value="Player equipts lumber axe" style="rounded=1;whiteSpace=wrap;html=1;fillColor=#FFFF99;" vertex="1" parent="1">
          <mxGeometry y="1200" width="120" height="60" as="geometry" />
        </mxCell>
        <mxCell id="AHHytjyTBA45PScuv-xg-60" style="edgeStyle=orthogonalEdgeStyle;rounded=0;orthogonalLoop=1;jettySize=auto;html=1;entryX=0;entryY=0.5;entryDx=0;entryDy=0;" edge="1" parent="1" source="AHHytjyTBA45PScuv-xg-57" target="AHHytjyTBA45PScuv-xg-59">
          <mxGeometry relative="1" as="geometry" />
        </mxCell>
        <mxCell id="AHHytjyTBA45PScuv-xg-57" value="Player starts to cut block" style="rounded=1;whiteSpace=wrap;html=1;fillColor=#FFFF99;" vertex="1" parent="1">
          <mxGeometry x="160" y="1200" width="120" height="60" as="geometry" />
        </mxCell>
        <mxCell id="AHHytjyTBA45PScuv-xg-63" style="edgeStyle=orthogonalEdgeStyle;rounded=0;orthogonalLoop=1;jettySize=auto;html=1;entryX=0;entryY=0.5;entryDx=0;entryDy=0;" edge="1" parent="1" source="AHHytjyTBA45PScuv-xg-59" target="AHHytjyTBA45PScuv-xg-62">
          <mxGeometry relative="1" as="geometry" />
        </mxCell>
        <mxCell id="AHHytjyTBA45PScuv-xg-68" style="edgeStyle=orthogonalEdgeStyle;rounded=0;orthogonalLoop=1;jettySize=auto;html=1;entryX=0.5;entryY=1;entryDx=0;entryDy=0;" edge="1" parent="1" source="AHHytjyTBA45PScuv-xg-59" target="AHHytjyTBA45PScuv-xg-67">
          <mxGeometry relative="1" as="geometry" />
        </mxCell>
        <mxCell id="AHHytjyTBA45PScuv-xg-59" value="" style="rhombus;whiteSpace=wrap;html=1;" vertex="1" parent="1">
          <mxGeometry x="350" y="1200" width="60" height="60" as="geometry" />
        </mxCell>
        <mxCell id="AHHytjyTBA45PScuv-xg-61" value="Is the block&amp;nbsp;&lt;div&gt;wood?&lt;/div&gt;" style="text;html=1;align=center;verticalAlign=middle;resizable=0;points=[];autosize=1;strokeColor=none;fillColor=none;" vertex="1" parent="1">
          <mxGeometry x="280" y="1230" width="90" height="40" as="geometry" />
        </mxCell>
        <mxCell id="AHHytjyTBA45PScuv-xg-64" style="edgeStyle=orthogonalEdgeStyle;rounded=0;orthogonalLoop=1;jettySize=auto;html=1;entryX=0;entryY=0.5;entryDx=0;entryDy=0;" edge="1" parent="1" source="AHHytjyTBA45PScuv-xg-62" target="YjS9ViXObc5qZ1YVy72e-1">
          <mxGeometry relative="1" as="geometry" />
        </mxCell>
        <mxCell id="AHHytjyTBA45PScuv-xg-62" value="All wood blocks connected to it are cutting down" style="rounded=1;whiteSpace=wrap;html=1;fillColor=#FFFF99;" vertex="1" parent="1">
          <mxGeometry x="475" y="1200" width="110" height="60" as="geometry" />
        </mxCell>
        <mxCell id="AHHytjyTBA45PScuv-xg-65" value="Tree felling" style="text;html=1;align=center;verticalAlign=middle;resizable=0;points=[];autosize=1;strokeColor=none;fillColor=none;" vertex="1" parent="1">
          <mxGeometry x="660" y="1185" width="80" height="30" as="geometry" />
        </mxCell>
        <mxCell id="AHHytjyTBA45PScuv-xg-66" value="Y" style="text;html=1;align=center;verticalAlign=middle;resizable=0;points=[];autosize=1;strokeColor=none;fillColor=none;" vertex="1" parent="1">
          <mxGeometry x="410" y="1235" width="30" height="30" as="geometry" />
        </mxCell>
        <mxCell id="AHHytjyTBA45PScuv-xg-67" value="Only that block is cut" style="rounded=1;whiteSpace=wrap;html=1;fillColor=#00FFFF;" vertex="1" parent="1">
          <mxGeometry x="325" y="1110" width="110" height="55" as="geometry" />
        </mxCell>
        <mxCell id="AHHytjyTBA45PScuv-xg-69" value="N" style="text;html=1;align=center;verticalAlign=middle;resizable=0;points=[];autosize=1;strokeColor=none;fillColor=none;" vertex="1" parent="1">
          <mxGeometry x="385" y="1168" width="30" height="30" as="geometry" />
        </mxCell>
        <mxCell id="AHHytjyTBA45PScuv-xg-70" value="" style="endArrow=classic;html=1;rounded=0;entryX=0.566;entryY=0.025;entryDx=0;entryDy=0;entryPerimeter=0;exitX=0;exitY=0.5;exitDx=0;exitDy=0;" edge="1" parent="1" source="AHHytjyTBA45PScuv-xg-67" target="AHHytjyTBA45PScuv-xg-57">
          <mxGeometry width="50" height="50" relative="1" as="geometry">
            <mxPoint x="310" y="1140" as="sourcePoint" />
            <mxPoint x="360" y="1090" as="targetPoint" />
            <Array as="points">
              <mxPoint x="228" y="1137" />
            </Array>
          </mxGeometry>
        </mxCell>
        <mxCell id="AHHytjyTBA45PScuv-xg-71" value="" style="endArrow=classic;html=1;rounded=0;entryX=0;entryY=0.5;entryDx=0;entryDy=0;" edge="1" parent="1" target="YjS9ViXObc5qZ1YVy72e-15">
          <mxGeometry width="50" height="50" relative="1" as="geometry">
            <mxPoint x="740" y="150" as="sourcePoint" />
            <mxPoint x="10" y="220" as="targetPoint" />
            <Array as="points">
              <mxPoint x="740" y="-10" />
              <mxPoint y="-10" />
              <mxPoint y="250" />
            </Array>
          </mxGeometry>
        </mxCell>
        <mxCell id="AHHytjyTBA45PScuv-xg-72" value="" style="endArrow=classic;html=1;rounded=0;entryX=0;entryY=0.5;entryDx=0;entryDy=0;" edge="1" parent="1" target="YjS9ViXObc5qZ1YVy72e-18">
          <mxGeometry width="50" height="50" relative="1" as="geometry">
            <mxPoint x="740" y="420" as="sourcePoint" />
            <mxPoint y="330" as="targetPoint" />
            <Array as="points">
              <mxPoint x="740" y="1320" />
              <mxPoint x="-10" y="1320" />
              <mxPoint x="-10" y="330" />
            </Array>
          </mxGeometry>
        </mxCell>
      </root>
    </mxGraphModel>
  </diagram>
</mxfile>
